<svg aria-roledescription="pie" role="graphics-document document" style="max-width: 744.453px; background-color: transparent;" viewBox="0 0 744.453125 450" xmlns:xlink="http://www.w3.org/1999/xlink" xmlns="http://www.w3.org/2000/svg" width="100%" id="my-svg"><style>#my-svg{font-family:"trebuchet ms",verdana,arial,sans-serif;font-size:16px;fill:#000000;}@keyframes edge-animation-frame{from{stroke-dashoffset:0;}}@keyframes dash{to{stroke-dashoffset:0;}}#my-svg .edge-animation-slow{stroke-dasharray:9,5!important;stroke-dashoffset:900;animation:dash 50s linear infinite;stroke-linecap:round;}#my-svg .edge-animation-fast{stroke-dasharray:9,5!important;stroke-dashoffset:900;animation:dash 20s linear infinite;stroke-linecap:round;}#my-svg .error-icon{fill:#552222;}#my-svg .error-text{fill:#552222;stroke:#552222;}#my-svg .edge-thickness-normal{stroke-width:1px;}#my-svg .edge-thickness-thick{stroke-width:3.5px;}#my-svg .edge-pattern-solid{stroke-dasharray:0;}#my-svg .edge-thickness-invisible{stroke-width:0;fill:none;}#my-svg .edge-pattern-dashed{stroke-dasharray:3;}#my-svg .edge-pattern-dotted{stroke-dasharray:2;}#my-svg .marker{fill:#666;stroke:#666;}#my-svg .marker.cross{stroke:#666;}#my-svg svg{font-family:"trebuchet ms",verdana,arial,sans-serif;font-size:16px;}#my-svg p{margin:0;}#my-svg .pieCircle{stroke:black;stroke-width:2px;opacity:0.7;}#my-svg .pieOuterCircle{stroke:black;stroke-width:2px;fill:none;}#my-svg .pieTitleText{text-anchor:middle;font-size:25px;fill:#333;font-family:"trebuchet ms",verdana,arial,sans-serif;}#my-svg .slice{font-family:"trebuchet ms",verdana,arial,sans-serif;fill:#000000;font-size:17px;}#my-svg .legend text{fill:#333;font-family:"trebuchet ms",verdana,arial,sans-serif;font-size:17px;}#my-svg :root{--mermaid-font-family:"trebuchet ms",verdana,arial,sans-serif;}</style><g/><g transform="translate(225,225)"><circle class="pieOuterCircle" r="186" cy="0" cx="0"/><path class="pieCircle" fill="#F4F4F4" d="M0,-185A185,185,0,0,1,185,0L0,0Z"/><path class="pieCircle" fill="#555" d="M185,0A185,185,0,0,1,57.168,175.945L0,0Z"/><path class="pieCircle" fill="#BBB" d="M57.168,175.945A185,185,0,0,1,-149.668,108.74L0,0Z"/><path class="pieCircle" fill="#777" d="M-149.668,108.74A185,185,0,0,1,-175.945,-57.168L0,0Z"/><path class="pieCircle" fill="#999" d="M-175.945,-57.168A185,185,0,0,1,-108.74,-149.668L0,0Z"/><path class="pieCircle" fill="#DDD" d="M-108.74,-149.668A185,185,0,0,1,0,-185L0,0Z"/><text style="text-anchor: middle;" class="slice" transform="translate(98.11106588963348,-98.11106588963347)">25%</text><text style="text-anchor: middle;" class="slice" transform="translate(112.25110796952396,81.55520375558065)">20%</text><text style="text-anchor: middle;" class="slice" transform="translate(-42.87610796952394,131.95909163595257)">20%</text><text style="text-anchor: middle;" class="slice" transform="translate(-137.04175725757534,21.70528202433205)">15%</text><text style="text-anchor: middle;" class="slice" transform="translate(-112.25110796952397,-81.55520375558064)">10%</text><text style="text-anchor: middle;" class="slice" transform="translate(-42.87610796952397,-131.95909163595255)">10%</text><text class="pieTitleText" y="-200" x="0">Where Engineering Time Actually Goes</text><g transform="translate(216,-66)" class="legend"><rect style="fill: rgb(244, 244, 244); stroke: rgb(244, 244, 244);" height="18" width="18"/><text y="14" x="22">Research &amp; Problem Definition</text></g><g transform="translate(216,-44)" class="legend"><rect style="fill: rgb(85, 85, 85); stroke: rgb(85, 85, 85);" height="18" width="18"/><text y="14" x="22">Planning &amp; Hypothesis</text></g><g transform="translate(216,-22)" class="legend"><rect style="fill: rgb(187, 187, 187); stroke: rgb(187, 187, 187);" height="18" width="18"/><text y="14" x="22">Coding</text></g><g transform="translate(216,0)" class="legend"><rect style="fill: rgb(119, 119, 119); stroke: rgb(119, 119, 119);" height="18" width="18"/><text y="14" x="22">Architecture &amp; Design</text></g><g transform="translate(216,22)" class="legend"><rect style="fill: rgb(153, 153, 153); stroke: rgb(153, 153, 153);" height="18" width="18"/><text y="14" x="22">Testing &amp; Review</text></g><g transform="translate(216,44)" class="legend"><rect style="fill: rgb(221, 221, 221); stroke: rgb(221, 221, 221);" height="18" width="18"/><text y="14" x="22">Collecting Results &amp; Iteration</text></g></g></svg>