<svg aria-roledescription="pie" role="graphics-document document" style="max-width: 744.453px; background-color: transparent;" viewBox="0 0 744.453125 450" xmlns:xlink="http://www.w3.org/1999/xlink" xmlns="http://www.w3.org/2000/svg" width="100%" id="my-svg"><style>#my-svg{font-family:"trebuchet ms",verdana,arial,sans-serif;font-size:16px;fill:#333;}@keyframes edge-animation-frame{from{stroke-dashoffset:0;}}@keyframes dash{to{stroke-dashoffset:0;}}#my-svg .edge-animation-slow{stroke-dasharray:9,5!important;stroke-dashoffset:900;animation:dash 50s linear infinite;stroke-linecap:round;}#my-svg .edge-animation-fast{stroke-dasharray:9,5!important;stroke-dashoffset:900;animation:dash 20s linear infinite;stroke-linecap:round;}#my-svg .error-icon{fill:hsl(220.5882352941, 100%, 98.3333333333%);}#my-svg .error-text{fill:rgb(8.5000000002, 5.7500000001, 0);stroke:rgb(8.5000000002, 5.7500000001, 0);}#my-svg .edge-thickness-normal{stroke-width:1px;}#my-svg .edge-thickness-thick{stroke-width:3.5px;}#my-svg .edge-pattern-solid{stroke-dasharray:0;}#my-svg .edge-thickness-invisible{stroke-width:0;fill:none;}#my-svg .edge-pattern-dashed{stroke-dasharray:3;}#my-svg .edge-pattern-dotted{stroke-dasharray:2;}#my-svg .marker{fill:#0b0b0b;stroke:#0b0b0b;}#my-svg .marker.cross{stroke:#0b0b0b;}#my-svg svg{font-family:"trebuchet ms",verdana,arial,sans-serif;font-size:16px;}#my-svg p{margin:0;}#my-svg .pieCircle{stroke:black;stroke-width:2px;opacity:0.7;}#my-svg .pieOuterCircle{stroke:black;stroke-width:2px;fill:none;}#my-svg .pieTitleText{text-anchor:middle;font-size:25px;fill:#e2e8f0;font-family:"trebuchet ms",verdana,arial,sans-serif;}#my-svg .slice{font-family:"trebuchet ms",verdana,arial,sans-serif;fill:#ffffff;font-size:17px;}#my-svg .legend text{fill:#e2e8f0;font-family:"trebuchet ms",verdana,arial,sans-serif;font-size:17px;}#my-svg :root{--mermaid-font-family:"trebuchet ms",verdana,arial,sans-serif;}</style><g/><g transform="translate(225,225)"><circle class="pieOuterCircle" r="186" cy="0" cx="0"/><path class="pieCircle" fill="#7c3aed" d="M0,-185A185,185,0,0,1,185,0L0,0Z"/><path class="pieCircle" fill="#a78bfa" d="M185,0A185,185,0,0,1,57.168,175.945L0,0Z"/><path class="pieCircle" fill="#c4b5fd" d="M57.168,175.945A185,185,0,0,1,-149.668,108.74L0,0Z"/><path class="pieCircle" fill="#f59e0b" d="M-149.668,108.74A185,185,0,0,1,-175.945,-57.168L0,0Z"/><path class="pieCircle" fill="#34d399" d="M-175.945,-57.168A185,185,0,0,1,-108.74,-149.668L0,0Z"/><path class="pieCircle" fill="#60a5fa" d="M-108.74,-149.668A185,185,0,0,1,0,-185L0,0Z"/><text style="text-anchor: middle;" class="slice" transform="translate(98.11106588963348,-98.11106588963347)">25%</text><text style="text-anchor: middle;" class="slice" transform="translate(112.25110796952396,81.55520375558065)">20%</text><text style="text-anchor: middle;" class="slice" transform="translate(-42.87610796952394,131.95909163595257)">20%</text><text style="text-anchor: middle;" class="slice" transform="translate(-137.04175725757534,21.70528202433205)">15%</text><text style="text-anchor: middle;" class="slice" transform="translate(-112.25110796952397,-81.55520375558064)">10%</text><text style="text-anchor: middle;" class="slice" transform="translate(-42.87610796952397,-131.95909163595255)">10%</text><text class="pieTitleText" y="-200" x="0">Where Engineering Time Actually Goes</text><g transform="translate(216,-66)" class="legend"><rect style="fill: rgb(124, 58, 237); stroke: rgb(124, 58, 237);" height="18" width="18"/><text y="14" x="22">Research &amp; Problem Definition</text></g><g transform="translate(216,-44)" class="legend"><rect style="fill: rgb(167, 139, 250); stroke: rgb(167, 139, 250);" height="18" width="18"/><text y="14" x="22">Planning &amp; Hypothesis</text></g><g transform="translate(216,-22)" class="legend"><rect style="fill: rgb(196, 181, 253); stroke: rgb(196, 181, 253);" height="18" width="18"/><text y="14" x="22">Coding</text></g><g transform="translate(216,0)" class="legend"><rect style="fill: rgb(245, 158, 11); stroke: rgb(245, 158, 11);" height="18" width="18"/><text y="14" x="22">Architecture &amp; Design</text></g><g transform="translate(216,22)" class="legend"><rect style="fill: rgb(52, 211, 153); stroke: rgb(52, 211, 153);" height="18" width="18"/><text y="14" x="22">Testing &amp; Review</text></g><g transform="translate(216,44)" class="legend"><rect style="fill: rgb(96, 165, 250); stroke: rgb(96, 165, 250);" height="18" width="18"/><text y="14" x="22">Collecting Results &amp; Iteration</text></g></g></svg>